<svg width="48" height="58" viewBox="0 0 48 58" fill="none" xmlns="http://www.w3.org/2000/svg">
    <g filter="url(#filter0_d_174_1586)">
        <path d="M21.9446 48.9912C6.80938 28.421 4 26.3099 4 18.75C4 8.39463 12.9543 0 24 0C35.0457 0 44 8.39463 44 18.75C44 26.3099 41.1906 28.421 26.0554 48.9912C25.0622 50.3363 22.9377 50.3362 21.9446 48.9912ZM24 26.5625C28.6024 26.5625 32.3333 23.0647 32.3333 18.75C32.3333 14.4353 28.6024 10.9375 24 10.9375C19.3976 10.9375 15.6667 14.4353 15.6667 18.75C15.6667 23.0647 19.3976 26.5625 24 26.5625Z" fill="#0767F7"/>
        <path d="M22.3471 48.6946C19.6346 45.0081 17.3216 41.919 15.3511 39.2873C11.8112 34.5597 9.37671 31.3083 7.71744 28.7217C6.4326 26.7189 5.63362 25.1451 5.15223 23.6212C4.67228 22.1018 4.5 20.6065 4.5 18.75C4.5 8.70068 13.1995 0.5 24 0.5C34.8005 0.5 43.5 8.70068 43.5 18.75C43.5 20.6065 43.3277 22.1018 42.8478 23.6212C42.3664 25.1451 41.5674 26.7189 40.2826 28.7217C38.6233 31.3083 36.1888 34.5597 32.6489 39.2873C30.6785 41.9189 28.3655 45.0079 25.6532 48.6942C24.8599 49.7685 23.1405 49.7686 22.3471 48.6946ZM24 27.0625C28.8477 27.0625 32.8333 23.3708 32.8333 18.75C32.8333 14.1292 28.8477 10.4375 24 10.4375C19.1523 10.4375 15.1667 14.1292 15.1667 18.75C15.1667 23.3708 19.1523 27.0625 24 27.0625Z" stroke="black" stroke-opacity="0.25"/>
    </g>
    <defs>
        <filter id="filter0_d_174_1586" x="0" y="0" width="48" height="58" filterUnits="userSpaceOnUse" color-interpolation-filters="sRGB">
            <feFlood flood-opacity="0" result="BackgroundImageFix"/>
            <feColorMatrix in="SourceAlpha" type="matrix" values="0 0 0 0 0 0 0 0 0 0 0 0 0 0 0 0 0 0 127 0" result="hardAlpha"/>
            <feOffset dy="4"/>
            <feGaussianBlur stdDeviation="2"/>
            <feComposite in2="hardAlpha" operator="out"/>
            <feColorMatrix type="matrix" values="0 0 0 0 0 0 0 0 0 0 0 0 0 0 0 0 0 0 0.25 0"/>
            <feBlend mode="normal" in2="BackgroundImageFix" result="effect1_dropShadow_174_1586"/>
            <feBlend mode="normal" in="SourceGraphic" in2="effect1_dropShadow_174_1586" result="shape"/>
        </filter>
    </defs>
</svg>