<svg width="38" height="30" viewBox="0 0 38 30" fill="none" xmlns="http://www.w3.org/2000/svg">
    <g filter="url(#filter0_d_214_906)">
        <path d="M33.4316 7.26458C33.6602 7.08698 34 7.25313 34 7.53385V19.25C34 20.7682 32.7402 22 31.1875 22H6.8125C5.25977 22 4 20.7682 4 19.25V7.53958C4 7.25313 4.33398 7.09271 4.56836 7.27031C5.88086 8.26719 7.62109 9.53333 13.5977 13.7786C14.834 14.6609 16.9199 16.5172 19 16.5057C21.0918 16.5229 23.2188 14.6266 24.4082 13.7786C30.3848 9.53333 32.1191 8.26146 33.4316 7.26458ZM19 14.6667C20.3594 14.6896 22.3164 12.9938 23.3008 12.2948C31.0762 6.7776 31.668 6.29635 33.4609 4.92135C33.8008 4.66354 34 4.2625 34 3.83854V2.75C34 1.23177 32.7402 0 31.1875 0H6.8125C5.25977 0 4 1.23177 4 2.75V3.83854C4 4.2625 4.19922 4.65781 4.53906 4.92135C6.33203 6.29062 6.92383 6.7776 14.6992 12.2948C15.6836 12.9938 17.6406 14.6896 19 14.6667Z" fill="#0767F7"/>
        <path d="M24.6982 14.1859C30.3282 10.1868 32.1988 8.82269 33.5 7.84003V19.25C33.5 20.4816 32.4747 21.5 31.1875 21.5H6.8125C5.52526 21.5 4.5 20.4816 4.5 19.25V7.84566C5.80214 8.82799 7.6784 10.1873 13.3077 14.186C13.4769 14.3068 13.6725 14.4543 13.8886 14.6172C14.409 15.0097 15.0478 15.4915 15.7214 15.9038C16.6821 16.4918 17.8199 17.0112 18.9993 17.0057C20.1863 17.0145 21.3383 16.4853 22.304 15.8928C22.9799 15.478 23.6193 14.9946 24.1309 14.6078C24.3445 14.4464 24.5358 14.3017 24.6982 14.1859ZM19.0084 14.1667L19 14.1666L18.9916 14.1667C18.7507 14.1708 18.4476 14.0973 18.0894 13.9442C17.7359 13.7932 17.3598 13.5781 16.9815 13.3322C16.4784 13.0052 16.0192 12.6578 15.6118 12.3496C15.388 12.1803 15.1799 12.0229 14.9887 11.8871L14.9886 11.887C7.78813 6.7778 6.75456 5.9869 5.22097 4.81336C5.0996 4.72049 4.9751 4.62522 4.84416 4.52523C4.62276 4.35292 4.5 4.10182 4.5 3.83854V2.75C4.5 1.51845 5.52526 0.5 6.8125 0.5H31.1875C32.4747 0.5 33.5 1.51845 33.5 2.75V3.83854C33.5 4.10551 33.3744 4.35938 33.1587 4.523L33.1567 4.52459C33.0555 4.60219 32.9581 4.67692 32.8631 4.74987C31.2813 5.9644 30.3443 6.68385 23.0114 11.887L23.0113 11.8871C22.8201 12.0229 22.612 12.1803 22.3882 12.3496C21.9808 12.6578 21.5216 13.0052 21.0185 13.3322C20.6402 13.5781 20.2641 13.7932 19.9106 13.9442C19.5524 14.0973 19.2493 14.1708 19.0084 14.1667Z" stroke="black" stroke-opacity="0.25"/>
    </g>
    <defs>
        <filter id="filter0_d_214_906" x="0" y="0" width="38" height="30" filterUnits="userSpaceOnUse" color-interpolation-filters="sRGB">
            <feFlood flood-opacity="0" result="BackgroundImageFix"/>
            <feColorMatrix in="SourceAlpha" type="matrix" values="0 0 0 0 0 0 0 0 0 0 0 0 0 0 0 0 0 0 127 0" result="hardAlpha"/>
            <feOffset dy="4"/>
            <feGaussianBlur stdDeviation="2"/>
            <feComposite in2="hardAlpha" operator="out"/>
            <feColorMatrix type="matrix" values="0 0 0 0 0 0 0 0 0 0 0 0 0 0 0 0 0 0 0.25 0"/>
            <feBlend mode="normal" in2="BackgroundImageFix" result="effect1_dropShadow_214_906"/>
            <feBlend mode="normal" in="SourceGraphic" in2="effect1_dropShadow_214_906" result="shape"/>
        </filter>
    </defs>
</svg>