<svg width="58" height="48" viewBox="0 0 58 48" fill="none" xmlns="http://www.w3.org/2000/svg">
    <g filter="url(#filter0_d_174_1578)">
        <path d="M53.0527 13.2083C53.4336 12.8854 54 13.1875 54 13.6979V35C54 37.7604 51.9004 40 49.3125 40H8.6875C6.09961 40 4 37.7604 4 35V13.7083C4 13.1875 4.55664 12.8958 4.94727 13.2187C7.13477 15.0312 10.0352 17.3333 19.9961 25.0521C22.0566 26.6562 25.5332 30.0312 29 30.0104C32.4863 30.0417 36.0312 26.5938 38.0137 25.0521C47.9746 17.3333 50.8652 15.0208 53.0527 13.2083ZM29 26.6667C31.2656 26.7083 34.5273 23.625 36.168 22.3542C49.127 12.3229 50.1133 11.4479 53.1016 8.94792C53.668 8.47917 54 7.75 54 6.97917V5C54 2.23958 51.9004 0 49.3125 0H8.6875C6.09961 0 4 2.23958 4 5V6.97917C4 7.75 4.33203 8.46875 4.89844 8.94792C7.88672 11.4375 8.87305 12.3229 21.832 22.3542C23.4727 23.625 26.7344 26.7083 29 26.6667Z" fill="#0767F7"/>
        <path d="M38.3199 25.4473C48.2805 17.7288 51.1772 15.4117 53.3717 13.5933L53.3718 13.5934L53.3761 13.5897L38.0137 25.0521M38.3199 25.4473L38.0137 25.0521M38.3199 25.4473C38.3202 25.4471 38.3204 25.447 38.3206 25.4468L38.0137 25.0521M38.3199 25.4473C38.0368 25.6675 37.7102 25.937 37.349 26.2349C36.5004 26.9349 35.4614 27.792 34.3489 28.5366C32.7575 29.6019 30.896 30.5262 28.9993 30.5104M38.0137 25.0521C37.7115 25.2871 37.373 25.5664 37.004 25.8709C34.9519 27.564 31.9549 30.0369 29 30.0104M28.9993 30.5104C29.0005 30.5104 29.0018 30.5104 29.003 30.5104L29 30.0104M28.9993 30.5104C27.1141 30.5206 25.2758 29.6132 23.6931 28.5564C22.5847 27.8164 21.5456 26.9613 20.6825 26.2511C20.3172 25.9506 19.9835 25.676 19.6894 25.447L4.94727 13.2187C7.13477 15.0312 10.0352 17.3333 19.9961 25.0521C20.3085 25.2953 20.6534 25.5792 21.0259 25.8858C23.1105 27.6015 26.0588 30.0281 29 30.0104M28.9993 30.5104C28.998 30.5104 28.9968 30.5104 28.9955 30.5104L29 30.0104M29.0092 26.1667L29 26.1666L28.9908 26.1667C28.5324 26.1752 27.9836 26.0238 27.3662 25.736C26.7541 25.4506 26.1101 25.048 25.4709 24.5947C24.6251 23.995 23.8368 23.3447 23.1505 22.7786C22.7812 22.474 22.4415 22.1938 22.1382 21.9589L22.1381 21.9588C10.1333 12.6661 8.40927 11.227 5.84861 9.08942C5.64615 8.92041 5.43845 8.74703 5.22003 8.56506C4.7695 8.18323 4.5 7.60595 4.5 6.97917V5C4.5 2.48484 6.40566 0.5 8.6875 0.5H49.3125C51.5943 0.5 53.5 2.48484 53.5 5V6.97917C53.5 7.60984 53.2278 8.19444 52.7828 8.56271L52.7807 8.56442C52.6125 8.70515 52.4507 8.8407 52.2927 8.97303C49.6507 11.186 48.0877 12.4951 35.8619 21.9588L35.8618 21.9589C35.5585 22.1938 35.2188 22.474 34.8495 22.7786C34.1632 23.3447 33.3749 23.995 32.5291 24.5947C31.8899 25.048 31.2459 25.4506 30.6338 25.736C30.0164 26.0238 29.4676 26.1752 29.0092 26.1667Z" stroke="black" stroke-opacity="0.25"/>
    </g>
    <defs>
        <filter id="filter0_d_174_1578" x="0" y="0" width="58" height="48" filterUnits="userSpaceOnUse" color-interpolation-filters="sRGB">
            <feFlood flood-opacity="0" result="BackgroundImageFix"/>
            <feColorMatrix in="SourceAlpha" type="matrix" values="0 0 0 0 0 0 0 0 0 0 0 0 0 0 0 0 0 0 127 0" result="hardAlpha"/>
            <feOffset dy="4"/>
            <feGaussianBlur stdDeviation="2"/>
            <feComposite in2="hardAlpha" operator="out"/>
            <feColorMatrix type="matrix" values="0 0 0 0 0 0 0 0 0 0 0 0 0 0 0 0 0 0 0.25 0"/>
            <feBlend mode="normal" in2="BackgroundImageFix" result="effect1_dropShadow_174_1578"/>
            <feBlend mode="normal" in="SourceGraphic" in2="effect1_dropShadow_174_1578" result="shape"/>
        </filter>
    </defs>
</svg>