<svg width="38" height="38" viewBox="0 0 38 38" fill="none" xmlns="http://www.w3.org/2000/svg">
    <g filter="url(#filter0_d_214_905)">
        <path d="M33.1445 21.1991L26.5818 18.3865C26.3015 18.267 25.9899 18.2419 25.694 18.3148C25.3981 18.3877 25.1339 18.5548 24.9412 18.7908L22.0349 22.3417C17.4737 20.1911 13.803 16.5204 11.6525 11.9593L15.2033 9.05295C15.4399 8.86057 15.6073 8.59636 15.6802 8.30033C15.7532 8.00429 15.7277 7.69255 15.6076 7.4123L12.7951 0.849679C12.6633 0.547569 12.4302 0.300907 12.1361 0.152225C11.8419 0.00354214 11.5051 -0.0378408 11.1837 0.0352115L5.08986 1.44149C4.78 1.51304 4.50353 1.68751 4.30559 1.93643C4.10765 2.18534 3.99993 2.494 4 2.81202C4 17.8416 16.1819 30 31.188 30C31.5061 30.0002 31.8149 29.8925 32.0639 29.6946C32.313 29.4966 32.4875 29.2201 32.5591 28.9101L33.9654 22.8163C34.0379 22.4933 33.9957 22.1552 33.8459 21.86C33.696 21.5648 33.448 21.3311 33.1445 21.1991Z" fill="#0767F7"/>
        <path d="M15.6076 7.4123C15.7277 7.69255 15.7532 8.00429 15.6802 8.30033C15.6073 8.59636 15.4399 8.86057 15.2033 9.05295L11.6525 11.9593C13.803 16.5204 17.4737 20.1911 22.0349 22.3417L24.9412 18.7908C25.1339 18.5548 25.3981 18.3877 25.694 18.3148C25.9899 18.2419 26.3015 18.267 26.5818 18.3865M15.6076 7.4123L12.7951 0.849679M15.6076 7.4123L15.1481 7.60925C15.2253 7.7896 15.2417 7.9902 15.1947 8.18069C15.1478 8.37121 15.0401 8.54124 14.8878 8.66505L14.8866 8.66603L11.3358 11.5723L11.0338 11.8195L11.2002 12.1725C13.4003 16.8387 17.1555 20.5939 21.8217 22.7939L22.1746 22.9603L22.4218 22.6583L25.3281 19.1075L25.3285 19.107C25.4527 18.9549 25.623 18.8472 25.8137 18.8003C26.0042 18.7533 26.2048 18.7695 26.3853 18.8463L26.3849 18.8461L26.5818 18.3865M15.6076 7.4123L15.148 7.60919L12.3368 1.04958L12.7951 0.849679M12.7951 0.849679C12.6633 0.547569 12.4302 0.300907 12.1361 0.152225M12.7951 0.849679L12.3355 1.04664L12.3362 1.04826C12.2509 0.853457 12.1004 0.694414 11.9105 0.59846L12.1361 0.152225M12.1361 0.152225C11.8419 0.00354214 11.5051 -0.0378408 11.1837 0.0352115M12.1361 0.152225L11.9105 0.59846C11.7205 0.5024 11.5029 0.475586 11.2952 0.522616L11.2961 0.522407L11.1837 0.0352115M11.1837 0.0352115L5.08986 1.44149M11.1837 0.0352115L11.2945 0.522776L5.20236 1.92867L5.08986 1.44149M5.08986 1.44149C4.78 1.51304 4.50353 1.68751 4.30559 1.93643C4.10765 2.18534 3.99993 2.494 4 2.81202C4 17.8416 16.1819 30 31.188 30C31.5061 30.0002 31.8149 29.8925 32.0639 29.6946C32.313 29.4966 32.4875 29.2201 32.5591 28.9101M5.08986 1.44149L5.20229 1.92868C5.00263 1.97481 4.82449 2.08724 4.69694 2.24763C4.56938 2.40804 4.49995 2.60696 4.5 2.81191L4.5 2.81202C4.5 17.5652 16.4577 29.5 31.188 29.5H31.1883C31.3933 29.5001 31.5923 29.4307 31.7528 29.3032C31.9133 29.1756 32.0258 28.9974 32.0719 28.7977L32.5591 28.9101M32.5591 28.9101L33.9654 22.8163M32.5591 28.9101L32.0719 28.7976L33.4775 22.7066L33.9654 22.8163M33.9654 22.8163C34.0379 22.4933 33.9957 22.1552 33.8459 21.86C33.696 21.5648 33.448 21.3311 33.1445 21.1991M33.9654 22.8163L33.4782 22.7038L33.4778 22.7054C33.5245 22.4963 33.497 22.2774 33.4 22.0863C33.303 21.8952 33.1426 21.7438 32.9462 21.6581L32.9475 21.6586L33.1445 21.1991M33.1445 21.1991L26.5818 18.3865M33.1445 21.1991L32.945 21.6576L26.3858 18.8465L26.5818 18.3865" stroke="black" stroke-opacity="0.25"/>
    </g>
    <defs>
        <filter id="filter0_d_214_905" x="0" y="0" width="38" height="38" filterUnits="userSpaceOnUse" color-interpolation-filters="sRGB">
            <feFlood flood-opacity="0" result="BackgroundImageFix"/>
            <feColorMatrix in="SourceAlpha" type="matrix" values="0 0 0 0 0 0 0 0 0 0 0 0 0 0 0 0 0 0 127 0" result="hardAlpha"/>
            <feOffset dy="4"/>
            <feGaussianBlur stdDeviation="2"/>
            <feComposite in2="hardAlpha" operator="out"/>
            <feColorMatrix type="matrix" values="0 0 0 0 0 0 0 0 0 0 0 0 0 0 0 0 0 0 0.25 0"/>
            <feBlend mode="normal" in2="BackgroundImageFix" result="effect1_dropShadow_214_905"/>
            <feBlend mode="normal" in="SourceGraphic" in2="effect1_dropShadow_214_905" result="shape"/>
        </filter>
    </defs>
</svg>