<svg width="58" height="58" viewBox="0 0 58 58" fill="none" xmlns="http://www.w3.org/2000/svg">
    <g filter="url(#filter0_d_174_1576)">
        <path d="M52.5741 35.3318L41.6364 30.6442C41.1691 30.4451 40.6499 30.4031 40.1567 30.5246C39.6635 30.6462 39.2232 30.9246 38.902 31.318L34.0581 37.2361C26.4562 33.6519 20.3384 27.534 16.7541 19.9321L22.6722 15.0882C23.0664 14.7676 23.3454 14.3273 23.467 13.8339C23.5886 13.3405 23.5461 12.8209 23.346 12.3538L18.6585 1.41613C18.4388 0.912616 18.0504 0.501512 17.5601 0.253708C17.0699 0.00590357 16.5085 -0.063068 15.9729 0.0586859L5.81644 2.40248C5.29999 2.52174 4.83922 2.81252 4.50932 3.22738C4.17942 3.64223 3.99988 4.15666 4 4.6867C4 29.736 24.3031 50 49.3133 50C49.8435 50.0003 50.3581 49.8209 50.7732 49.491C51.1883 49.1611 51.4792 48.7002 51.5985 48.1836L53.9423 38.0271C54.0632 37.4889 53.9928 36.9253 53.7431 36.4333C53.4934 35.9414 53.08 35.5518 52.5741 35.3318Z" fill="#0767F7"/>
        <path d="M53.9423 38.0271L51.5985 48.1836C51.4792 48.7002 51.1883 49.1611 50.7732 49.491C50.3581 49.8209 49.8435 50.0003 49.3133 50C24.3031 50 4 29.736 4 4.6867L16.7541 19.9321C20.3384 27.534 26.4562 33.6519 34.0581 37.2361L38.902 31.318C39.2232 30.9246 39.6635 30.6462 40.1567 30.5246C40.6499 30.4031 41.1691 30.4451 41.6364 30.6442M53.9423 38.0271C54.0632 37.4889 53.9928 36.9253 53.7431 36.4333C53.4934 35.9414 53.08 35.5518 52.5741 35.3318M53.9423 38.0271L53.4544 37.9175L51.1113 48.0711C51.0175 48.4775 50.7886 48.84 50.4621 49.0996C50.1356 49.3591 49.7307 49.5003 49.3136 49.5H49.3133C24.5789 49.5 4.5 29.4595 4.5 4.6867V4.68659C4.49991 4.26962 4.64115 3.86494 4.90067 3.53858C5.16019 3.21223 5.52267 2.98347 5.92894 2.88966L16.0837 0.54625C16.0839 0.546194 16.0842 0.546138 16.0844 0.546081C16.5064 0.450362 16.9485 0.504768 17.3346 0.699943C17.7205 0.894996 18.0263 1.21843 18.1995 1.61458C18.1997 1.61507 18.1999 1.61555 18.2002 1.61603L22.8864 12.5507C23.0437 12.9179 23.0771 13.3264 22.9816 13.7142L23.467 13.8339L22.9816 13.7142C22.886 14.1021 22.6666 14.4483 22.3567 14.7003L22.3555 14.7013L16.4374 19.5452L16.1354 19.7923L16.3019 20.1453C19.9356 27.8523 26.138 34.0546 33.8449 37.6884L34.1979 37.8548L34.4451 37.5528L39.2889 31.6347L39.2893 31.6342C39.542 31.3247 39.8884 31.1057 40.2763 31.0101C40.6642 30.9145 41.0727 30.9475 41.4403 31.1041L41.4394 31.1038L41.6364 30.6442M53.9423 38.0271L53.4551 37.9147L53.4548 37.9161C53.5498 37.4917 53.4941 37.0474 53.2972 36.6596C53.1004 36.2718 52.7746 35.9646 52.376 35.7909L52.3771 35.7913L52.5741 35.3318M52.5741 35.3318L41.6364 30.6442M52.5741 35.3318L52.3746 35.7903L41.4404 31.1042L41.6364 30.6442" stroke="black" stroke-opacity="0.25"/>
    </g>
    <defs>
        <filter id="filter0_d_174_1576" x="0" y="0" width="58" height="58" filterUnits="userSpaceOnUse" color-interpolation-filters="sRGB">
            <feFlood flood-opacity="0" result="BackgroundImageFix"/>
            <feColorMatrix in="SourceAlpha" type="matrix" values="0 0 0 0 0 0 0 0 0 0 0 0 0 0 0 0 0 0 127 0" result="hardAlpha"/>
            <feOffset dy="4"/>
            <feGaussianBlur stdDeviation="2"/>
            <feComposite in2="hardAlpha" operator="out"/>
            <feColorMatrix type="matrix" values="0 0 0 0 0 0 0 0 0 0 0 0 0 0 0 0 0 0 0.25 0"/>
            <feBlend mode="normal" in2="BackgroundImageFix" result="effect1_dropShadow_174_1576"/>
            <feBlend mode="normal" in="SourceGraphic" in2="effect1_dropShadow_174_1576" result="shape"/>
        </filter>
    </defs>
</svg>